<svg width="73" height="23" viewBox="0 0 73 23" fill="none" xmlns="http://www.w3.org/2000/svg">
<path d="M9.03523 0H9.67833C11.9109 0.0466794 14.107 0.910249 15.6844 2.439C15.102 3.01082 14.5075 3.5593 13.9372 4.13113C13.0514 3.36092 11.9837 2.76576 10.8189 2.5557C9.0959 2.2056 7.2395 2.52069 5.7956 3.46595C4.21825 4.45788 3.1505 6.13834 2.91996 7.93549C2.66516 9.70933 3.1869 11.5765 4.38812 12.9535C5.5408 14.2956 7.30016 15.1358 9.12019 15.1942C10.8189 15.2875 12.5903 14.7857 13.828 13.642C14.7986 12.8368 15.2476 11.6115 15.3932 10.4212C13.379 10.4212 11.3649 10.4329 9.35071 10.4212V8.0172H17.832C18.2689 10.5962 17.6379 13.502 15.5994 15.3458C14.2405 16.6528 12.3598 17.4231 10.4427 17.5748C8.58628 17.7498 6.66922 17.4114 5.01906 16.5478C3.0413 15.5326 1.46395 13.8171 0.687401 11.7982C-0.0406098 9.94272 -0.0527433 7.84215 0.626733 5.97497C1.24554 4.27117 2.43462 2.76576 3.96345 1.71547C5.4316 0.676854 7.21521 0.105029 9.03523 0Z" fill="#011032" fill-opacity="0.56"/>
<path d="M57.6914 0.606445H60.288V17.271C59.4265 17.271 58.5529 17.2827 57.6914 17.2593C57.7036 11.7161 57.6914 6.16127 57.6914 0.606445Z" fill="#011032" fill-opacity="0.56"/>
<path d="M23.608 6.38382C25.2096 6.09202 26.9447 6.4188 28.2672 7.34074C29.4684 8.1576 30.3057 9.44131 30.5605 10.8417C30.888 12.4638 30.4755 14.2376 29.3835 15.5213C28.2066 16.9567 26.2773 17.7269 24.3966 17.6102C22.6737 17.5168 20.9993 16.6882 19.9801 15.3346C18.8274 13.8408 18.5483 11.7869 19.1792 10.0365C19.8102 8.1576 21.5938 6.72222 23.608 6.38382ZM23.972 8.60108C23.3168 8.76444 22.7101 9.12621 22.2733 9.63971C21.0964 10.9934 21.1692 13.199 22.4674 14.4594C23.2076 15.1829 24.3238 15.5213 25.3552 15.3229C26.3137 15.1595 27.151 14.541 27.612 13.7241C28.4128 12.3354 28.1823 10.4216 26.9568 9.33629C26.1682 8.63606 25.0155 8.34433 23.972 8.60108Z" fill="#011032" fill-opacity="0.56"/>
<path d="M36.4694 6.38367C38.3015 6.04525 40.3036 6.53541 41.6746 7.77238C43.9072 9.69791 44.1499 13.3039 42.2449 15.5211C41.0923 16.9215 39.2237 17.6917 37.3794 17.6101C35.62 17.5634 33.885 16.7231 32.8415 15.3345C31.6645 13.8057 31.4097 11.7051 32.0771 9.91962C32.7444 8.09917 34.4916 6.71045 36.4694 6.38367ZM36.8334 8.60093C36.1782 8.76435 35.5715 9.12612 35.1347 9.62788C33.9699 10.9582 34.0184 13.1288 35.2682 14.4009C36.0083 15.1594 37.161 15.5328 38.2287 15.3228C39.1751 15.1478 40.0245 14.5409 40.4855 13.724C41.2743 12.3237 41.0437 10.4098 39.8061 9.32446C39.0174 8.62429 37.8647 8.34424 36.8334 8.60093Z" fill="#011032" fill-opacity="0.56"/>
<path d="M47.3791 7.0599C48.7744 6.21967 50.6309 5.9863 52.1355 6.70982C52.6086 6.90822 52.9969 7.24662 53.3731 7.58509C53.3852 7.26999 53.373 6.94321 53.3852 6.61649C54.1981 6.62817 55.0111 6.61649 55.8361 6.62817V16.921C55.824 18.473 55.4115 20.1185 54.2467 21.2505C52.9726 22.4991 51.0191 22.8843 49.2598 22.6275C47.3791 22.3591 45.7411 21.0404 45.013 19.3716C45.7411 19.0332 46.5055 18.7648 47.2577 18.4497C47.6825 19.4066 48.5439 20.2235 49.6238 20.4103C50.7036 20.597 51.9534 20.3402 52.6571 19.4766C53.4094 18.5897 53.4094 17.3761 53.3731 16.2908C52.8149 16.8159 52.1718 17.2827 51.3953 17.4578C49.7087 17.9129 47.8523 17.3528 46.554 16.2558C45.2436 15.1588 44.4671 13.4667 44.5399 11.7862C44.5762 9.88406 45.6925 8.05187 47.3791 7.0599ZM49.8907 8.55369C49.1506 8.67039 48.459 9.06714 47.9858 9.61563C46.8452 10.9226 46.8452 13.0116 47.9979 14.2952C48.6531 15.0538 49.7087 15.4739 50.7279 15.3688C51.6865 15.2755 52.5723 14.692 53.0454 13.8868C53.8462 12.5214 53.7128 10.6659 52.6329 9.47557C51.9655 8.74041 50.8978 8.37865 49.8907 8.55369Z" fill="#011032" fill-opacity="0.56"/>
<path d="M63.4059 7.65556C64.8621 6.34849 67.1069 5.90506 68.9753 6.59356C70.7468 7.23544 71.8751 8.85755 72.4453 10.5263C69.8129 11.5766 67.1918 12.6152 64.5588 13.6655C64.9225 14.3307 65.4807 14.9375 66.2334 15.1826C67.2887 15.5444 68.5505 15.416 69.4366 14.7391C69.7883 14.4824 70.0671 14.144 70.3346 13.8172C71.0017 14.249 71.6694 14.6691 72.3364 15.1009C71.3899 16.4663 69.8003 17.4232 68.0898 17.5749C66.1969 17.7966 64.1824 17.0965 62.9572 15.6728C60.943 13.4321 61.1372 9.67441 63.4059 7.65556ZM64.7041 9.81447C64.292 10.3863 64.122 11.0865 64.134 11.775C65.8935 11.0748 67.6531 10.3746 69.412 9.66273C69.1213 9.00923 68.4171 8.61248 67.7016 8.50746C66.5487 8.30906 65.3473 8.90421 64.7041 9.81447Z" fill="#011032" fill-opacity="0.56"/>
</svg>
