<svg width="86" height="22" viewBox="0 0 86 22" fill="none" xmlns="http://www.w3.org/2000/svg">
<path d="M27.8103 8.81569C27.8103 7.28097 26.32 5.65106 23.7409 5.65106C20.8447 5.65106 17.6632 7.77842 17.1769 12.0227C16.6801 16.3092 19.3438 18.2143 22.0286 18.2143C24.7133 18.2143 26.1192 17.1665 27.5567 15.7694C26.32 14.2135 24.7239 14.9333 24.4174 15.092C24.0791 15.2614 23.6457 15.4942 22.7579 15.4942C21.722 15.4942 20.6651 15.0285 20.6651 13.0916C27.303 12.4354 27.8103 10.3503 27.8103 8.81569ZM24.5231 9.0697C24.4808 9.54597 24.2906 10.361 20.9293 10.8161C21.6375 8.29706 22.9905 8.10654 23.614 8.10654C24.1954 8.10654 24.5654 8.56169 24.5231 9.0697ZM13.2766 9.48248C13.2766 9.48248 11.8497 13.9701 11.7334 14.3406C11.6911 13.9595 10.6447 5.90507 10.6447 5.90507C8.21358 5.90507 6.91347 7.64083 6.22642 9.47192C6.22642 9.47192 4.49294 13.9701 4.34496 14.3511C4.33439 14.0018 4.0807 9.52478 4.0807 9.52478C3.93273 7.28097 1.88214 5.91565 0.222656 5.91565L2.23096 18.1191C4.77833 18.1085 6.15243 16.3833 6.87117 14.5522C6.87117 14.5522 8.40385 10.5832 8.46725 10.4033C8.4778 10.5726 9.56654 18.1191 9.56654 18.1191C12.1244 18.1191 13.4986 16.4997 14.2385 14.7322L17.8217 5.91565C15.2955 5.91565 13.9637 7.64083 13.2766 9.48248ZM37.1965 5.62989C35.6216 5.62989 34.4166 6.48721 33.4019 7.74668V7.73612L34.3109 0.401367C32.2181 0.401367 30.5163 2.22182 30.1886 4.93134L28.6031 18.0238C29.8081 18.0238 31.0871 17.6745 31.7741 16.7855C32.3872 17.5793 33.3067 18.2143 34.6703 18.2143C38.2006 18.2143 40.6212 14.1077 40.6212 10.2551C40.6001 6.74122 38.8983 5.62989 37.1965 5.62989ZM36.8688 11.9274C36.4989 14.076 35.3045 15.5366 34.1524 15.5366C32.9897 15.5366 32.4929 15.0179 32.4929 15.0179C32.7149 13.134 32.8523 11.9803 33.275 10.9854C33.6978 9.99049 34.702 8.40291 35.7484 8.40291C36.7737 8.40291 37.2388 9.76823 36.8688 11.9274ZM49.4366 5.91565H46.9738L46.9843 5.78864C47.1534 4.17987 47.534 3.33315 48.7918 3.19555C49.6479 3.11089 50.0285 2.66635 50.1236 2.17949C50.1976 1.79846 50.4302 0.475456 50.4302 0.475456C45.4834 0.443704 43.9296 2.58168 43.5279 5.84157L43.5174 5.91565H43.4645C42.6612 5.91565 41.7733 6.82589 41.6253 7.97957L41.5725 8.40291H43.2214L41.8368 19.8549L41.4139 21.9081C41.4668 21.9081 41.5302 21.9187 41.5831 21.9187C43.8979 21.834 45.3777 20.003 45.7054 17.3464L46.7835 8.40291H47.5551C48.3161 8.40291 49.204 7.64083 49.3626 6.37074L49.4366 5.91565ZM62.2474 5.70398C59.4041 5.70398 56.7193 7.79961 55.8949 11.0912C55.0704 14.3829 56.3176 18.2778 60.5033 18.2778C64.6784 18.2778 67.0883 14.2241 67.0883 10.8478C67.0883 7.49268 64.8159 5.70398 62.2474 5.70398ZM63.3997 11.8215C63.2516 13.3139 62.5962 15.5789 60.7993 15.5789C58.9919 15.5789 59.2455 12.9329 59.4252 11.6734C59.6155 10.3292 60.366 8.41347 61.9832 8.41347C63.4311 8.41347 63.5686 10.1387 63.3997 11.8215ZM81.1358 9.48248C81.1358 9.48248 79.709 13.9701 79.5928 14.3406C79.5508 13.9595 78.5043 5.90507 78.5043 5.90507C76.0731 5.90507 74.7731 7.64083 74.0857 9.47192C74.0857 9.47192 72.3525 13.9701 72.2044 14.3511C72.1937 14.0018 71.9401 9.52478 71.9401 9.52478C71.7919 7.28097 69.7417 5.91565 68.082 5.91565L70.0801 18.1191C72.6274 18.1085 74.0016 16.3833 74.7203 14.5522C74.7203 14.5522 76.2526 10.5832 76.3054 10.4033C76.316 10.5726 77.4045 18.1191 77.4045 18.1191C79.9626 18.1191 81.3367 16.4997 82.0768 14.7322L85.6599 5.91565C83.1446 5.91565 81.8125 7.64083 81.1358 9.48248ZM51.762 0.475456L49.6902 17.2088L49.2675 19.2727C49.3203 19.2727 49.3837 19.2833 49.4366 19.2833C51.6669 19.2515 53.2523 17.2935 53.5483 14.8274L54.7427 5.22769C55.1021 2.29591 53.3581 0.475456 51.762 0.475456Z" fill="#011032" fill-opacity="0.56"/>
</svg>
