<svg width="91" height="18" viewBox="0 0 91 18" fill="none" xmlns="http://www.w3.org/2000/svg">
<path d="M5.75147 17.5211H2.33046V9.14482H0V6.41769H2.33036V4.47712C2.33036 2.17756 3.36109 0.52832 6.77286 0.52832C7.49442 0.52832 8.62731 0.671173 8.62731 0.671173V3.20348H7.43742C6.22503 3.20348 5.75166 3.56569 5.75166 4.56709V6.41769H8.58193L8.32985 9.14482H5.75156L5.75147 17.5211ZM13.6011 6.19974C13.5512 6.19974 13.4999 6.20152 13.4492 6.20277C10.277 6.20277 8.82567 8.54641 8.82567 11.8732C8.82567 16.0641 10.7083 17.7414 13.4739 17.7414C15.0563 17.7414 16.0959 17.0873 16.7278 15.8665V17.5223H19.9817V6.41881H16.7278V8.12639C16.2119 7.02777 15.1432 6.21274 13.6011 6.19974ZM14.4284 8.82342C15.7608 8.82342 16.5604 9.73621 16.5604 11.2888L16.5635 12.8745C16.5635 13.921 15.903 15.1452 14.4284 15.1452C12.1615 15.1452 12.222 12.741 12.222 11.9402C12.222 9.24655 13.4298 8.82342 14.4284 8.82342ZM21.2958 11.9711C21.2958 10.6219 21.23 6.20697 27.0863 6.20697C29.4371 6.20697 30.4187 6.94112 30.4187 6.94112L29.6297 9.34455C29.6297 9.34455 28.6494 8.81436 27.372 8.81436C25.7359 8.81436 24.6919 9.74596 24.6919 11.385L24.6937 12.5603C24.6937 14.1352 25.7011 15.1865 27.3754 15.1865C28.5391 15.1865 29.6117 14.6514 29.6117 14.6514L30.3986 17.0046C30.3986 17.0046 29.5011 17.7434 27.1027 17.7434C21.5267 17.7434 21.2959 13.7824 21.2959 11.9711H21.2958ZM49.4974 6.20277C52.6696 6.20277 54.1438 8.54641 54.1438 11.8732C54.1438 16.0641 52.2611 17.7414 49.4954 17.7414C47.9131 17.7414 46.7434 17.0873 46.1115 15.8665V17.5223L42.8985 17.521V0.865927L46.3098 0.573709V7.97593C46.8022 6.68093 48.4202 6.20277 49.4974 6.20277H49.4974ZM48.541 8.82342C47.2087 8.82342 46.3098 9.73621 46.3098 11.2888L46.3067 12.8745C46.3047 13.921 46.9291 15.1452 48.541 15.1452C50.808 15.1452 50.7474 12.741 50.7474 11.9402C50.7474 9.24655 49.5396 8.82342 48.541 8.82342ZM36.3376 6.21193C32.7397 6.21193 30.8402 8.13868 30.8402 11.5627V12.1989C30.8402 16.6429 33.5076 17.7871 36.6878 17.7871C39.7788 17.7871 41.178 16.9379 41.178 16.9379L40.5397 14.6765C40.5397 14.6765 38.8938 15.3643 37.0968 15.3643C35.2338 15.3643 34.4326 14.8979 34.2272 13.1395H41.4508V11.3252C41.4508 7.61109 39.3189 6.21187 36.3375 6.21187L36.3376 6.21193ZM36.4243 8.4764C37.6697 8.4764 38.4768 9.2265 38.4325 10.9662H34.2334C34.3063 9.1352 35.1766 8.47646 36.4243 8.47646V8.4764ZM60.9458 6.19671C57.2509 6.19671 55.3058 8.24178 55.3058 11.9066C55.3058 16.935 58.6589 17.7445 60.952 17.7445C64.3092 17.7445 66.5425 15.9693 66.5425 11.9523C66.5425 7.77129 64.0311 6.19671 60.9458 6.19671ZM60.8994 8.83255C62.524 8.83255 63.1678 10.0268 63.1678 11.3863V12.555C63.1678 14.2018 62.2669 15.1544 60.8932 15.1544C59.6083 15.1544 58.7053 14.2634 58.7053 12.555V11.3863C58.7053 9.56428 59.7798 8.83255 60.8994 8.83255ZM73.3384 6.19671C69.6434 6.19671 67.6983 8.24178 67.6983 11.9066C67.6983 16.935 71.0514 17.7445 73.3447 17.7445C76.7016 17.7445 78.9349 15.9693 78.9349 11.9523C78.9349 7.77129 76.4236 6.19671 73.3384 6.19671ZM73.2917 8.83255C74.9164 8.83255 75.5603 10.0268 75.5603 11.3863V12.555C75.5603 14.2018 74.6592 15.1544 73.2853 15.1544C72.0006 15.1544 71.0975 14.2634 71.0975 12.555V11.3863C71.0975 9.56428 72.1725 8.83255 73.2917 8.83255ZM80.2241 17.5211V0.865927L83.6454 0.573709V11.7371L87.0396 6.41769H90.6524L87.1116 11.927L90.7889 17.5211H87.1654L83.6454 12.0893V17.5211H80.2241Z" fill="#011032" fill-opacity="0.56"/>
</svg>
