<svg width="79" height="18" viewBox="0 0 79 18" fill="none" xmlns="http://www.w3.org/2000/svg">
<path d="M13.1711 17.5721L8.02595 17.4771C6.36003 17.444 4.69002 17.5101 3.05683 17.1673C0.572275 16.6552 0.396268 14.144 0.212075 12.0377C-0.0417019 9.07627 0.0565345 6.06124 0.535436 3.12467C0.805588 1.47673 1.86981 0.493745 3.51528 0.38636C9.06971 -0.00187781 14.661 0.0435543 20.2032 0.225282C20.7885 0.241803 21.3779 0.332668 21.9551 0.435922C24.8039 0.939807 24.8735 3.7855 25.0577 6.18101C25.2419 8.60133 25.1641 11.034 24.8121 13.4377C24.5297 15.4285 23.9894 17.0971 21.7095 17.2582C18.8524 17.4688 16.0609 17.6382 13.1957 17.5845C13.1957 17.5721 13.1793 17.5721 13.1711 17.5721ZM10.1462 12.5332C12.2992 11.286 14.4113 10.0593 16.552 8.82022C14.3949 7.57288 12.287 6.34622 10.1462 5.10717V12.5332Z" fill="#011032" fill-opacity="0.56"/>
<path d="M66.3262 15.3089C66.2281 15.7136 66.1421 16.0317 66.0561 16.3704H64.0422V0.696289H66.3918V6.47855C66.5148 6.3216 66.5759 6.25552 66.6288 6.18531C67.0302 5.62774 67.5501 5.26428 68.2216 5.12385C69.29 4.91321 70.2023 5.38818 70.5259 6.42486C70.7343 7.06914 70.8693 7.75893 70.8859 8.43213C70.919 10.1627 70.8942 11.8891 70.833 13.6197C70.8082 14.1483 70.6489 14.6894 70.4482 15.185C69.7888 16.8205 67.6361 17.0683 66.5677 15.6517C66.502 15.565 66.4409 15.47 66.3262 15.3089ZM66.4409 10.997V13.8633C66.4409 14.33 66.6862 14.615 67.1487 14.7224C67.6036 14.8298 67.9718 14.6522 68.1559 14.2268C68.2337 14.0492 68.3114 13.8633 68.3152 13.6775C68.3604 11.9262 68.4012 10.175 68.414 8.41972C68.414 8.09347 68.3362 7.75475 68.2375 7.43673C68.0534 6.86266 67.5462 6.69333 67.0468 7.02787C66.6702 7.28392 66.4409 7.64739 66.4409 8.13063V10.997ZM60.0554 5.34689H62.5155V16.3786H60.5958C60.5262 15.9615 60.4566 15.5319 60.3747 15.028C60.2437 15.2222 60.166 15.3461 60.0841 15.47C59.4456 16.3993 58.541 16.7173 57.4727 16.5479C56.5599 16.3993 56.0114 15.6889 55.8886 14.5242C55.8518 14.1772 55.8354 13.8262 55.8354 13.4792C55.8272 10.8979 55.8354 8.30825 55.8354 5.72686V5.33862H58.324V5.78881C58.324 8.28344 58.3159 10.7739 58.3322 13.2686C58.3322 13.6238 58.369 13.9914 58.4305 14.3465C58.5 14.71 58.762 14.8422 59.114 14.8174C59.683 14.772 60.0759 14.3465 60.0759 13.7766V5.83425C60.0554 5.67317 60.0554 5.52448 60.0554 5.34689ZM43.1178 5.33862H45.5902V5.80533C45.5902 8.28755 45.5819 10.7657 45.5983 13.2397C45.5983 13.5949 45.6311 13.9624 45.7048 14.3094C45.7989 14.7183 46.0363 14.8504 46.4415 14.7967C47.0023 14.7183 47.3421 14.3259 47.3461 13.7518V5.85076V5.35514H49.8061V16.3786H47.8946C47.825 15.9698 47.7555 15.5484 47.6654 15.0156C47.5426 15.2015 47.473 15.3089 47.4034 15.4204C46.7649 16.3662 45.8685 16.7132 44.7756 16.5438C43.8997 16.4117 43.3634 15.7591 43.1997 14.6894C43.1547 14.3548 43.122 14.0244 43.122 13.6899C43.1138 11.0093 43.1138 8.31648 43.1138 5.636L43.1178 5.33862ZM41.849 11.2283C41.8408 11.6 41.8163 11.9717 41.7957 12.3434C41.7016 13.4586 41.6566 15.0404 40.7643 15.8541C40.1954 16.3662 39.4749 16.5521 38.73 16.5769C38.3984 16.5851 38.0628 16.5851 37.7313 16.5397C36.1636 16.3001 35.435 15.6022 35.173 13.8633C34.8742 11.8561 34.8497 9.81575 35.2057 7.80849C35.5741 5.73099 36.843 4.99581 38.8159 5.13211C40.6579 5.26428 41.4806 6.48267 41.6975 8.21735C41.8163 9.21275 41.8735 10.2205 41.849 11.2283ZM39.3439 10.8483C39.3439 10.142 39.3603 9.43164 39.3358 8.7254C39.3194 8.31648 39.2662 7.90344 39.1802 7.4987C39.082 7.03199 38.7873 6.80898 38.4189 6.81721C38.0587 6.8255 37.8049 7.04851 37.6739 7.48218C37.6289 7.64328 37.5798 7.80849 37.5798 7.96953C37.5798 9.07647 37.5716 10.1875 37.5634 11.2943C37.5552 12.3269 37.4242 13.409 37.7476 14.3961C37.8459 14.6976 38.0996 14.8628 38.4312 14.8628C38.7546 14.8628 38.9673 14.7018 39.0861 14.4126C39.1802 14.1896 39.2621 13.9459 39.2621 13.7064C39.2907 12.7564 39.3439 11.8024 39.3439 10.8483ZM31.5628 8.77079C31.7797 7.70107 31.9844 6.65617 32.2095 5.60708C32.492 4.27303 32.8071 2.93898 33.0855 1.6008C33.1551 1.27451 33.286 1.19604 33.5931 1.2043C34.252 1.22908 34.9233 1.21256 35.6274 1.21256C35.3981 2.06338 35.173 2.8729 34.952 3.67002C34.252 6.17292 33.5521 8.68407 32.8603 11.1953C32.8071 11.3893 32.7826 11.6 32.7826 11.8065C32.7744 13.1777 32.7826 14.5448 32.7826 15.916V16.3621H30.3799C30.3717 16.2382 30.3553 16.1143 30.3553 15.9904C30.3553 15.2139 30.2939 14.4333 30.3635 13.6651C30.5395 11.8189 29.9583 10.1214 29.4876 8.4032C28.8654 6.13162 28.2351 3.85175 27.6129 1.58015C27.5801 1.47276 27.5678 1.35712 27.5352 1.22496H29.987C30.5027 3.73198 31.0225 6.239 31.5628 8.77079ZM78.5731 11.6496H74.4307C74.4759 12.488 74.4919 13.2851 74.5779 14.074C74.6397 14.6233 74.9385 14.8587 75.4087 14.8628C75.8999 14.8711 76.1865 14.6233 76.3012 14.0781C76.3382 13.9005 76.3624 13.7229 76.3789 13.5412C76.3955 13.3801 76.4038 13.2066 76.4159 12.9753C77.1161 13.0125 77.7997 13.0538 78.475 13.0828C78.8675 14.2598 78.1596 15.7715 76.9683 16.2382C76.0311 16.6099 75.0691 16.6099 74.1115 16.3249C73.4031 16.1143 72.8756 15.66 72.6379 14.962C72.4168 14.3094 72.2079 13.6279 72.1633 12.9464C72.0403 11.2655 71.9951 9.56793 72.2493 7.88281C72.2939 7.60194 72.3716 7.33349 72.4576 7.06092C72.8016 5.9375 73.5509 5.24776 74.7091 5.13211C75.3392 5.07016 75.9903 5.09494 76.6121 5.20233C77.6194 5.37992 78.1558 6.11097 78.389 7.06914C78.4954 7.51934 78.5731 7.98194 78.5897 8.44042C78.5935 9.49362 78.5731 10.5385 78.5731 11.6496ZM76.2197 10.1999C76.2197 9.36967 76.2273 8.58905 76.2114 7.80432C76.2114 7.61847 76.142 7.42439 76.0719 7.24677C75.933 6.89982 75.6425 6.80487 75.2946 6.80487C74.9468 6.80487 74.7257 6.98242 74.6397 7.30044C74.3772 8.25451 74.4632 9.22927 74.4715 10.2081C75.0977 10.1999 75.6667 10.1999 76.2197 10.1999Z" fill="#011032" fill-opacity="0.56"/>
<path d="M51.705 3.23587H49.2695V1.24512H56.539V3.22348H54.1199V16.3616H51.709L51.705 3.23587Z" fill="#011032" fill-opacity="0.56"/>
</svg>
