<svg width="86" height="21" viewBox="0 0 86 21" fill="none" xmlns="http://www.w3.org/2000/svg">
<path d="M9.4573 0.318556C8.35299 0.440329 6.69645 0.946154 5.75396 1.45198C3.2216 2.79148 1.50797 4.88035 0.651157 7.66238C0.479793 8.20566 0.27987 9.68567 0.28939 10.3789C0.28939 10.9877 0.479793 12.4771 0.594035 12.8331C0.651157 13.0016 0.774916 13.4045 0.879641 13.7135C1.051 14.2381 1.87926 15.8867 2.02206 15.9991C2.05062 16.0272 2.20294 16.2146 2.34575 16.43C2.69799 16.9452 3.62145 17.8632 4.31641 18.3878C4.84955 18.7905 6.3537 19.6429 6.54416 19.6523C6.59174 19.6523 6.60128 19.2964 6.57272 18.828C6.50606 17.7883 6.70599 16.3738 7.13436 14.9313C7.21057 14.6877 7.26769 14.3692 7.26769 14.2288C7.26769 14.0883 7.30573 13.9384 7.35338 13.8915C7.40096 13.8353 7.48664 13.5637 7.53423 13.2827C7.59135 13.0016 7.68658 12.5708 7.75318 12.3272C7.84841 11.9619 7.83887 11.8214 7.7056 11.428C7.51521 10.8285 7.50566 9.85429 7.69606 9.38592C8.14351 8.27126 8.63854 7.84971 9.47632 7.84971C10.4855 7.84971 10.971 8.5991 10.7806 9.85429C10.6949 10.4257 10.4569 11.325 10.3046 11.6059C10.2665 11.6902 10.1999 11.9245 10.1713 12.1211C10.1332 12.3272 10.057 12.6176 10.0095 12.7769C9.87619 13.1421 10.1332 13.854 10.4759 14.1257C10.7997 14.3786 11.4756 14.4535 12.0944 14.3131C12.5323 14.2194 12.7132 14.107 13.1702 13.6761C13.7128 13.1515 14.1222 12.5427 14.1222 12.2523C14.1222 12.168 14.1698 12.0556 14.2269 11.9994C14.4934 11.7371 14.6363 9.69506 14.4363 8.83325C14.2174 7.8872 13.5414 6.95987 12.6656 6.41659C11.7897 5.8639 9.9809 5.70466 8.86704 6.07934C8.08638 6.3416 7.39142 6.78186 6.94397 7.29704C6.54416 7.75608 6.12525 8.50541 6.12525 8.76772C6.12525 8.86136 6.07764 8.98316 6.02053 9.03936C5.9634 9.09557 5.89676 9.45152 5.8682 9.83557C5.8206 10.407 5.85868 10.6692 6.03004 11.2313C6.14428 11.6153 6.3537 12.065 6.47749 12.2335C6.73455 12.5708 6.73455 12.7019 6.49651 13.6011C6.42991 13.8447 6.31566 14.0695 6.24901 14.0976C5.64924 14.3224 4.43066 12.908 4.02129 11.5029C3.86897 10.969 3.85945 9.06747 4.01177 8.50541C4.07841 8.27126 4.19266 7.9528 4.26881 7.78418C4.34498 7.62489 4.41162 7.46566 4.41162 7.42823C4.41162 7.39074 4.60202 7.07228 4.84002 6.72566C6.07764 4.88971 8.08638 3.91554 10.6283 3.91554C11.209 3.91554 11.8088 3.953 11.9706 3.99984C13.2844 4.40262 13.6366 4.53376 14.1508 4.83351C15.1504 5.42364 15.8739 6.22919 16.5974 7.57807C16.645 7.66238 16.7117 7.8872 16.7402 8.07454C16.7783 8.26187 16.845 8.43987 16.8925 8.46798C16.9401 8.49608 16.9782 9.10489 16.9782 9.82618C16.9782 11.1282 16.883 11.6528 16.4832 12.7207C16.0357 13.8915 14.8838 15.1842 13.8366 15.69C13.2368 15.971 12.1134 16.2802 11.666 16.2802C11.0662 16.2802 9.88573 15.7931 9.56201 15.3996C9.40972 15.2216 9.26691 15.2872 9.26691 15.5402C9.26691 15.6338 9.2288 15.7931 9.17168 15.8867C9.1241 15.971 9.03841 16.2333 8.99083 16.4675C8.71475 17.704 8.32442 18.7062 7.72462 19.6429C7.54377 19.9333 7.69606 20.1019 8.19109 20.1675C8.43867 20.205 8.77187 20.2705 8.92416 20.3174C9.30495 20.4391 11.3708 20.4204 12.0658 20.2986C12.6942 20.1862 13.7128 19.9053 14.1698 19.7179C17.0449 18.5564 19.225 16.1959 20.1675 13.189C20.6721 11.5872 20.7006 9.72316 20.2436 7.84971C20.0913 7.24084 20.0437 7.10038 19.6344 6.16365C19.0441 4.79605 17.7113 3.19427 16.3594 2.21072C15.198 1.36767 14.0555 0.880585 12.2753 0.459064C11.7802 0.346658 10.019 0.252987 9.4573 0.318556ZM34.8476 3.70009C34.4763 3.75629 33.886 4.35579 33.7337 4.82414C33.5719 5.33934 33.7337 5.892 34.1906 6.32289C35.1998 7.28772 36.9515 6.3791 36.7325 4.99276C36.5993 4.11224 35.7805 3.55022 34.8476 3.70009ZM24.4706 4.25275C24.3849 4.34643 24.3849 15.6432 24.4801 15.7743C24.5277 15.8492 24.937 15.8773 25.7368 15.868L26.9268 15.8586L26.9744 13.9571C27.0125 12.4115 27.0506 12.0369 27.1648 11.9713C27.241 11.9245 27.8884 11.8776 28.6023 11.8776C30.1637 11.8776 30.8205 11.7652 31.5346 11.3905C32.4675 10.894 33.0102 10.1821 33.3053 9.04875C33.4862 8.33685 33.4862 7.82161 33.2957 7.09099C33.1244 6.4353 33.0482 6.27607 32.6389 5.74213C32.1343 5.07706 31.6203 4.71174 30.7825 4.42136C30.3159 4.27149 29.9256 4.24338 27.4028 4.21529C25.8319 4.19655 24.5087 4.21529 24.4706 4.25275ZM29.6972 6.58514C30.335 6.78186 30.6491 7.06289 30.792 7.56875C30.9729 8.23377 30.8396 8.85203 30.4397 9.2267C30.0018 9.62946 29.6115 9.72316 28.3357 9.72316C27.498 9.72316 27.241 9.69506 27.1267 9.57326C27.0029 9.46091 26.9744 9.1892 26.9744 8.12135C26.9744 6.4353 26.9649 6.44469 28.2882 6.44469C28.8594 6.44469 29.4116 6.50083 29.6972 6.58514ZM46.3955 6.03251C46.3955 6.67884 46.3479 7.28772 46.3003 7.39074C46.2337 7.51254 46.1004 7.56875 45.8719 7.56875C45.7005 7.56875 45.5387 7.60617 45.5197 7.66238C45.5101 7.7092 45.5101 8.03705 45.5387 8.38367C45.5863 9.00187 45.5958 9.01126 45.8814 9.07685C46.0433 9.1049 46.2241 9.1611 46.2812 9.19859C46.3669 9.24541 46.3955 9.98541 46.3955 11.8589C46.3955 14.3786 46.405 14.4723 46.6144 14.847C47.0524 15.6432 47.7378 15.9242 49.1278 15.8867L50.0608 15.8586L50.0893 14.95L50.1179 14.0321H49.8799C49.5181 14.0321 48.985 13.751 48.9278 13.5262C48.8993 13.4138 48.8707 12.4209 48.8707 11.3062C48.8707 9.76998 48.8993 9.2548 48.9945 9.17988C49.0612 9.12367 49.3277 9.06747 49.5848 9.04875L50.0608 9.02065V7.61556L49.5372 7.58746C49.2516 7.56875 48.985 7.50315 48.9469 7.44695C48.9088 7.38135 48.8707 6.77254 48.8707 6.08871V4.85225H46.3955V6.03251ZM81.7819 4.90845C81.7436 4.94592 81.7154 5.53605 81.7154 6.21987C81.7154 7.54997 81.706 7.56875 81.1824 7.56875C80.9439 7.56875 80.9439 7.57807 80.9728 8.28997C81.001 9.00187 81.0111 9.02065 81.2584 9.04875C81.3915 9.06747 81.5534 9.133 81.6011 9.1892C81.6583 9.2548 81.7154 10.3882 81.7436 11.8308C81.7725 13.2171 81.8202 14.4816 81.8579 14.6315C81.9721 15.0437 82.5628 15.5683 83.124 15.7462C83.7524 15.9523 85.3519 15.971 85.5138 15.7743C85.5898 15.69 85.6186 15.3528 85.5998 14.8657L85.5709 14.0789L85.2376 14.0227C84.876 13.9665 84.4668 13.7791 84.3619 13.6199C84.3236 13.5637 84.286 12.5427 84.286 11.353C84.286 8.90824 84.2288 9.06747 85.0568 9.06747C85.5998 9.06747 85.6469 8.97377 85.5998 8.12135L85.5709 7.61556L84.952 7.56875L84.333 7.52187L84.286 6.21048L84.2383 4.89908L83.0387 4.87098C82.3814 4.86162 81.8202 4.88035 81.7819 4.90845ZM41.683 7.34392C41.2165 7.46566 40.6739 7.77479 40.3122 8.14013C39.8742 8.58972 39.7599 8.56161 39.7124 7.99023L39.6838 7.61556H37.3038V15.8586L38.5033 15.8773C39.6838 15.9054 39.7123 15.8961 39.7695 15.69C39.798 15.5776 39.8266 14.388 39.8266 13.0391C39.8266 10.3695 39.8361 10.2945 40.3978 9.76998C40.6454 9.53583 40.7786 9.48895 41.3118 9.46084L41.9306 9.42342L42.3018 9.80747C42.7397 10.2571 42.6922 9.82618 42.7303 13.7042C42.7397 14.7346 42.7493 15.6432 42.7588 15.7369C42.7778 15.868 42.9302 15.8867 43.9964 15.868L45.2055 15.8586V9.2829L44.9294 8.74895C44.4534 7.82161 43.7203 7.38135 42.597 7.32514C42.1971 7.31582 41.7878 7.31582 41.683 7.34392ZM53.5832 7.34392C52.555 7.61556 52.06 7.8872 51.4222 8.50541C50.5654 9.35782 50.175 10.3508 50.175 11.6902C50.1845 14.0414 51.6792 15.7837 53.8879 15.9897C55.7729 16.1678 57.2294 15.6245 58.1624 14.3973C58.2957 14.2194 58.5813 13.648 58.5813 13.545C58.5813 13.5075 58.0292 13.47 57.3628 13.47H56.1441L55.8586 13.7604C55.5254 14.0976 55.0588 14.3131 54.6305 14.3131C54.202 14.3131 53.5452 14.0133 53.2405 13.6948C53.012 13.4419 52.6788 12.7113 52.6788 12.4583C52.6788 12.374 53.3738 12.3459 55.6111 12.3459C57.2199 12.3459 58.5813 12.3085 58.648 12.271C58.7907 12.1773 58.6575 10.688 58.448 10.1447C58.0196 9.01126 57.2104 8.05582 56.3917 7.71859C56.1537 7.62489 55.8776 7.50315 55.7824 7.45633C55.5825 7.35325 53.8879 7.26894 53.5832 7.34392ZM55.4397 9.39531C55.8109 9.64824 56.1346 10.2477 56.087 10.5849C56.0584 10.8004 56.0394 10.8004 54.4305 10.8285C52.5741 10.8566 52.5646 10.8472 52.8597 10.1728C53.0692 9.70445 53.488 9.2829 53.8784 9.1611C54.3258 9.02065 55.0494 9.133 55.4397 9.39531ZM67.6729 7.34392C66.5687 7.63428 65.7978 8.11203 65.1977 8.85203C64.9598 9.15177 64.7696 9.4328 64.7696 9.48895C64.7696 9.53583 64.7031 9.70444 64.6171 9.86367C64.5317 10.0135 64.4074 10.4819 64.3409 10.9034C64.0075 12.908 64.9215 14.7814 66.6352 15.6245L67.2925 15.9523H68.6729C70.101 15.9523 70.2246 15.9242 71.1003 15.4652C71.7381 15.128 72.7852 13.8166 72.6232 13.5543C72.5856 13.5075 72.0426 13.47 71.4048 13.47H70.2341L69.9962 13.7416C69.0439 14.8002 67.2636 14.2569 66.8832 12.7862C66.8261 12.5895 66.8261 12.4209 66.8732 12.3834C66.9209 12.3553 68.2824 12.3366 69.9101 12.3459C72.2334 12.3459 72.8618 12.3272 72.8712 12.2335C72.9566 11.0627 72.3853 9.32972 71.6716 8.58039C71.2717 8.15884 70.5768 7.69048 70.2341 7.60617C70.0815 7.56874 69.9102 7.50315 69.8436 7.45633C69.7105 7.35325 67.9679 7.26894 67.6729 7.34392ZM69.1581 9.17049C69.5869 9.32039 70.0815 9.8449 70.1581 10.2477C70.2724 10.8566 70.2818 10.8566 68.5109 10.8285C66.9209 10.8004 66.9115 10.8004 66.8832 10.5849C66.8449 10.3226 67.1782 9.67634 67.4639 9.4328C67.8731 9.09557 68.5869 8.98316 69.1581 9.17049ZM75.9559 7.34392C74.0043 7.8029 73.2993 8.48669 73.2899 9.91049C73.2899 11.4467 74.0708 12.0931 76.384 12.4958C77.9741 12.7675 78.4311 13.011 78.4116 13.6011C78.4022 14.0227 78.1071 14.2943 77.5171 14.4161C76.7745 14.5753 76.1938 14.3973 75.7274 13.8821L75.3558 13.47H74.2039C73.2711 13.47 73.052 13.4981 73.052 13.6011C73.052 13.8728 73.433 14.5847 73.7469 14.9407C74.0419 15.2497 74.2704 15.3996 75.1656 15.8212C75.2509 15.868 75.7173 15.9429 76.1844 15.9991C77.0507 16.1022 78.5547 16.0085 78.9351 15.8212C79.0211 15.7837 79.2685 15.6619 79.4781 15.5683C80.0205 15.3153 80.5346 14.744 80.7254 14.2007C80.9345 13.5824 80.8773 12.7207 80.5823 12.1211C80.2301 11.4186 79.2973 10.9128 77.9075 10.6692C76.1172 10.3601 76.089 10.3508 75.8033 10.0791C75.4606 9.73255 75.4606 9.61075 75.8033 9.23608C76.0796 8.93634 76.0984 8.92695 76.8598 8.92695C77.6219 8.92695 77.6407 8.93634 77.9169 9.23608C78.0689 9.4047 78.1931 9.60136 78.1931 9.67634C78.1931 9.78875 78.3928 9.81686 79.3827 9.81686C80.6966 9.81686 80.6583 9.8449 80.4298 9.17988C80.0111 7.99962 78.9351 7.40013 77.1454 7.33453C76.5937 7.31582 76.0601 7.31582 75.9559 7.34392ZM63.2938 7.54064C62.8751 7.6811 62.2942 8.14946 62.1133 8.48669C61.9324 8.82393 61.7705 8.68341 61.723 8.12135L61.6754 7.61556H59.2953L59.2667 11.5497C59.2573 13.7135 59.2667 15.5776 59.2953 15.6994C59.3429 15.9054 59.3715 15.9054 60.5139 15.8867C61.1708 15.8773 61.7039 15.8212 61.742 15.765C61.7801 15.7181 61.8182 14.7252 61.8182 13.5637C61.8182 11.7277 61.8372 11.3999 61.999 10.9877C62.3322 10.1353 63.0465 9.62946 63.941 9.62946C64.189 9.62946 64.2932 9.58264 64.322 9.46084C64.3886 9.1892 64.398 7.9247 64.3409 7.64367C64.2837 7.41884 64.236 7.38135 63.9793 7.39074C63.8079 7.40013 63.5035 7.46566 63.2938 7.54064ZM33.9717 7.6811C33.9431 7.74669 33.9337 9.59203 33.9431 11.7839L33.9717 15.765L35.1046 15.8118C35.7901 15.8399 36.2851 15.8212 36.3612 15.765C36.466 15.69 36.4946 14.8938 36.4946 11.709C36.504 9.53583 36.4755 7.7092 36.4469 7.66238C36.3518 7.52187 34.0193 7.54064 33.9717 7.6811Z" fill="#011032" fill-opacity="0.56"/>
</svg>
